<?xml version="1.0" standalone="no"?>
<!DOCTYPE svg PUBLIC "-//W3C//DTD SVG 20010904//EN"
 "http://www.w3.org/TR/2001/REC-SVG-20010904/DTD/svg10.dtd">
<svg version="1.0" xmlns="http://www.w3.org/2000/svg"
 width="275.000000pt" height="183.000000pt" viewBox="0 0 275.000000 183.000000"
 preserveAspectRatio="xMidYMid meet">
<metadata>
Created by potrace 1.15, written by Peter Selinger 2001-2017
</metadata>
<g transform="translate(0.000000,183.000000) scale(0.100000,-0.100000)"
fill="#000000" stroke="none">
<path d="M0 915 l0 -915 1375 0 1375 0 0 915 0 915 -1375 0 -1375 0 0 -915z
m960 416 l0 -59 -122 -4 c-106 -3 -131 -8 -180 -30 -72 -33 -142 -103 -176
-176 -23 -49 -27 -70 -27 -147 0 -78 4 -97 28 -147 38 -77 96 -134 175 -171
66 -31 69 -32 250 -35 198 -5 231 1 251 44 7 17 11 123 11 325 0 264 2 300 16
306 8 3 22 -1 29 -8 8 -8 95 -153 193 -322 98 -170 186 -317 195 -328 20 -23
69 -25 91 -3 14 13 16 57 16 327 0 172 4 318 9 325 22 36 49 0 226 -304 228
-393 208 -364 250 -364 65 0 65 -2 65 437 l0 393 60 0 61 0 -3 -418 -3 -418
-25 -37 c-65 -94 -183 -103 -273 -18 -16 14 -77 109 -135 210 l-107 184 -5
-174 c-5 -162 -7 -176 -28 -207 -49 -68 -139 -90 -219 -51 -55 26 -79 59 -194
257 l-94 163 -5 -158 c-6 -171 -14 -201 -66 -242 -47 -37 -97 -43 -314 -39
-232 5 -265 13 -381 90 -160 107 -237 328 -181 515 28 90 87 181 153 233 106
84 184 108 347 109 l112 1 0 -59z m315 33 c54 -36 64 -49 177 -246 l103 -176
5 172 c5 170 5 173 33 209 36 48 75 67 132 67 57 0 102 -20 142 -63 17 -18 76
-111 132 -207 l101 -175 0 223 0 223 63 -3 62 -3 3 -386 c2 -333 0 -388 -13
-399 -8 -7 -21 -10 -28 -7 -8 3 -97 148 -198 323 -101 175 -191 327 -200 338
-21 25 -77 26 -95 1 -11 -15 -14 -85 -14 -336 0 -203 -4 -320 -10 -324 -6 -3
-18 -4 -28 -1 -9 4 -98 146 -197 319 -99 171 -192 324 -207 339 -31 33 -48 35
-79 9 l-24 -19 -5 -319 -5 -318 -205 0 c-197 0 -207 1 -254 24 -240 118 -241
454 -1 572 59 29 72 31 177 33 l113 1 0 -60 0 -60 -110 -5 c-129 -6 -169 -24
-211 -96 -23 -38 -26 -53 -22 -108 4 -73 29 -118 86 -157 33 -22 44 -24 171
-24 l136 0 5 275 c5 252 7 278 25 308 48 80 165 107 240 56z"/>
</g>
</svg>
