<?xml version="1.0" encoding="utf-8"?>
<!-- Generator: Adobe Illustrator 22.0.1, SVG Export Plug-In . SVG Version: 6.00 Build 0)  -->
<svg version="1.1" xmlns="http://www.w3.org/2000/svg" xmlns:xlink="http://www.w3.org/1999/xlink" x="0px" y="0px"
	 viewBox="0 0 679.3 679.3" style="enable-background:new 0 0 679.3 679.3;" xml:space="preserve">
<style type="text/css">
	.st0{display:none;}
	.st1{display:inline;}
	.st2{fill:#FFFFFF;}
	.st3{font-family:'Impact';}
	.st4{font-size:156.25px;}
	.st5{fill:#0071BC;}
	.st6{fill:none;stroke:#000000;stroke-width:6;stroke-miterlimit:10;}
	.st7{font-size:300px;}
</style>
<g id="Layer_1" class="st0">
	<g class="st1">
		<path class="st2" d="M-63.7-62.3c266.7,0,533.3,0,800,0c0,266.7,0,533.3,0,800c-266.7,0-533.3,0-800,0
			C-63.7,471-63.7,204.3-63.7-62.3z M247,534.9c2.5-0.8,4.4-1.5,6.3-2.1c25.3-8.6,50.6-17.4,76-25.7c4.2-1.4,9.7-1.4,13.9-0.1
			c25.7,8.3,51.2,17.2,76.8,25.9c1.8,0.6,3.6,1.4,6,2.3c-4.5,10.2-8.8,19.6-13,29.1c-3.7,8.4-1.7,16.4,4.9,19.7
			c7.1,3.5,15.3,0.2,19.2-8.2c4.4-9.4,8.7-18.9,12.3-28.7c2.1-5.9,5.1-6.6,11-6c18.9,1.9,37.8,3.2,56.7,4c5.1,0.2,7.6,1,9.7,6.1
			c10.1,24.4,38.6,35.5,62.5,24.7c24-10.8,34.4-38.9,23.6-63.1c-1.1-2.5-1.4-6.6-0.1-9c14.8-27.9,15.3-56.7,3.5-85.2
			c-7.6-18.4-17.6-35.8-27.6-53.1c-5.8-10-13.7-18.8-20.3-27.8c8-10.9,15.9-21.3,23.4-31.9c4.8-6.8,3.5-14.3-2.3-18.7
			c-5.6-4.2-13.1-3.3-18.3,2.3c-1.9,2.1-3.4,4.6-5.1,6.9c-5.2,7-10.4,14-14.6,19.7c-23.6-19.9-46.5-39.1-69.2-58.5
			c-1.9-1.6-3.3-4.6-3.7-7.1c-2.7-14.6-4.7-29.3-7.6-43.8c-2.9-14.5-6.4-28.8-10-44.3c9.1-1.2,17.8-2.8,26.5-3.5
			c23.7-2,47.4-1.9,70.3,5.8c18.3,6.1,32.7,16.7,39.2,36c2.7,8,10.3,11.4,17.5,8.7c6.9-2.6,10.4-10.3,7.9-18
			c-8.2-25.1-25.9-40.9-49.8-50.4c-25-9.9-51.1-11.6-77.6-9.8c-14.2,0.9-28.3,2.7-42.4,4.2c-2.8-6.8-5.3-13.7-8.3-20.3
			c-12.9-29-28-56.5-52.6-77.5C357.4,8.4,316.6,8,281.9,36.4c-15.9,13-28.3,29-39.1,46.4c-3,4.8-5.9,9.7-8.7,14.3
			c-29.9-9.1-52.3,8.5-59.4,26.6c-2.1,5.3-4.8,6.3-9.8,6.1c-23.6-0.6-46.8,1.9-68.8,11.1c-22,9.2-38.8,23.9-47.2,47
			c-3.4,9.4-0.6,17.4,6.9,20.4c7.6,3,14.8-0.7,18.6-10.4c5.5-14.1,14.8-24.2,28.6-30.4c21.5-9.7,44.3-10.7,67.3-10.6
			c1.6,0,4,1.6,4.6,3c5.8,12.7,15.5,21.2,28,26.7c-2.7,14.2-7,27.8-7.5,41.7c-0.8,19.8-8.6,33.9-25.8,43.3c-2,1.1-3.7,2.9-5.4,4.5
			c-14.6,13.2-29.3,26.5-44.7,40.4c-6.3-8.6-12.5-17.1-18.7-25.8c-4-5.7-9-8.6-16-6.3c-9,3-12,12.3-6.2,20.9
			c7.5,10.9,15.6,21.3,23.5,32.1c-3.3,4.1-6.4,7.9-9.4,11.8c-19.3,25.1-35.6,52-43.3,83.1c-6.2,24.6-5.9,48.6,9.8,70.2
			c3.9,5.4,7.2,10.3,5.9,17.6c-0.7,3.9,0.6,8.3,1.7,12.2c5.2,17.4,16.8,28.8,34.3,32.9c17.8,4.1,33.4-0.7,46.3-14.1
			c2.3-2.4,5.5-5.5,8.4-5.7c21.2-1.8,42.4-3,64-4.3c5.8,12.6,11.6,26.5,18.3,39.9c11,21.8,24.5,41.9,43.5,57.5
			c20.7,17,43.9,25.5,71,19.7c8.5-1.8,12.9-8,11.5-15.7c-1.3-6.8-8.5-11.9-16-10.2c-21.1,4.9-37.8-3.1-52.5-17
			C272.5,592.9,258.8,564.7,247,534.9z M79.4,250c0.1-7.3-5.9-13.7-13.1-13.8c-7.5-0.1-13.6,5.7-13.7,13c-0.1,7.3,6,13.7,13,13.9
			C72.9,263.3,79.3,257.1,79.4,250z M606.4,236.2c-7,0-13,5.9-13.2,12.7c-0.1,7.2,6.7,13.8,14.1,13.6c6.8-0.2,12.8-6.4,12.7-13.2
			C620,242.2,613.7,236.2,606.4,236.2z M395.7,602.6c-7.1,0-12.7,5.7-12.7,13c-0.1,7.7,6.4,14.3,13.7,14.1
			c6.7-0.2,12.6-6.6,12.4-13.6C408.9,608.7,402.8,602.6,395.7,602.6z"/>
		<path d="M247,534.9c11.8,29.9,25.6,58,49,80.2c14.7,13.9,31.5,21.9,52.5,17c7.5-1.7,14.7,3.4,16,10.2c1.4,7.7-3,13.8-11.5,15.7
			c-27.1,5.9-50.3-2.7-71-19.7c-19.1-15.6-32.5-35.7-43.5-57.5c-6.8-13.4-12.6-27.3-18.3-39.9c-21.5,1.4-42.8,2.5-64,4.3
			c-3,0.3-6.1,3.3-8.4,5.7c-12.9,13.3-28.5,18.2-46.3,14.1c-17.5-4.1-29.2-15.4-34.3-32.9c-1.2-3.9-2.4-8.4-1.7-12.2
			c1.2-7.3-2-12.2-5.9-17.6c-15.7-21.6-16-45.5-9.8-70.2c7.8-31.1,24-58,43.3-83.1c3-3.9,6.1-7.7,9.4-11.8
			c-8-10.8-16.1-21.2-23.5-32.1c-5.9-8.5-2.8-17.8,6.2-20.9c7.1-2.4,12,0.6,16,6.3c6.1,8.6,12.4,17.2,18.7,25.8
			c15.4-13.9,30-27.2,44.7-40.4c1.7-1.6,3.4-3.4,5.4-4.5c17.2-9.4,25-23.5,25.8-43.3c0.5-13.8,4.8-27.5,7.5-41.7
			c-12.5-5.4-22.2-13.9-28-26.7c-0.7-1.5-3.1-3-4.6-3c-23-0.1-45.8,1-67.3,10.6c-13.8,6.2-23.1,16.3-28.6,30.4
			c-3.8,9.7-11,13.4-18.6,10.4c-7.6-3-10.3-10.9-6.9-20.4c8.3-23.1,25.1-37.8,47.2-47c22-9.2,45.2-11.7,68.8-11.1
			c5,0.1,7.7-0.9,9.8-6.1c7.1-18.1,29.4-35.7,59.4-26.6c2.8-4.7,5.7-9.5,8.7-14.3c10.8-17.4,23.1-33.4,39.1-46.4
			c34.7-28.3,75.5-28,109.6,1.1c24.6,21,39.8,48.5,52.6,77.5c2.9,6.6,5.5,13.5,8.3,20.3c14.1-1.4,28.2-3.2,42.4-4.2
			c26.4-1.7,52.6-0.1,77.6,9.8c23.9,9.5,41.6,25.3,49.8,50.4c2.5,7.8-1,15.5-7.9,18c-7.2,2.7-14.8-0.6-17.5-8.7
			c-6.5-19.3-20.9-29.9-39.2-36c-22.9-7.7-46.6-7.9-70.3-5.8c-8.7,0.7-17.4,2.3-26.5,3.5c3.5,15.5,7.1,29.9,10,44.3
			c2.9,14.5,4.9,29.2,7.6,43.8c0.5,2.5,1.8,5.5,3.7,7.1c22.7,19.4,45.6,38.6,69.2,58.5c4.2-5.7,9.4-12.7,14.6-19.7
			c1.7-2.3,3.2-4.8,5.1-6.9c5.2-5.6,12.7-6.5,18.3-2.3c5.9,4.4,7.1,11.9,2.3,18.7c-7.4,10.7-15.3,21-23.4,31.9
			c6.7,9,14.5,17.8,20.3,27.8c10,17.3,20,34.7,27.6,53.1c11.8,28.5,11.3,57.3-3.5,85.2c-1.2,2.3-1,6.4,0.1,9
			c10.8,24.2,0.5,52.3-23.6,63.1c-23.8,10.7-52.4-0.3-62.5-24.7c-2.1-5.1-4.6-5.8-9.7-6.1c-18.9-0.8-37.9-2.1-56.7-4
			c-5.9-0.6-8.8,0.1-11,6c-3.5,9.8-7.9,19.2-12.3,28.7c-3.9,8.3-12.1,11.6-19.2,8.2c-6.6-3.3-8.7-11.3-4.9-19.7
			c4.2-9.5,8.5-19,13-29.1c-2.4-0.9-4.2-1.7-6-2.3c-25.6-8.7-51.1-17.6-76.8-25.9c-4.2-1.4-9.7-1.3-13.9,0.1
			c-25.5,8.2-50.7,17.1-76,25.7C251.3,533.4,249.4,534,247,534.9z M215.4,341.1c0.8,19.1,1.7,37.5,2.4,56c0.2,5.9,2.5,9.7,7.5,13.3
			c33.7,23.8,69.8,43.2,107,60.7c2.7,1.3,7.1,1.3,9.9,0c38.1-17,74-38,107.8-62.4c2.5-1.8,4.7-5.6,5-8.6c4.1-41.5,4.1-83.1,0-124.7
			c-0.3-3.1-2.4-6.9-4.8-8.6c-34-24.6-70.4-45.1-108.5-62.8c-2.6-1.2-6.6-1.3-9.2-0.1c-38.3,17.2-74.5,38.2-108.4,62.8
			c-2.5,1.8-4.5,5.7-4.8,8.7C217.7,297.5,216.6,319.6,215.4,341.1z M425.6,140.1c-7.3-25.7-29.5-62.2-48.6-79.9
			c-27.6-25.5-57.6-24.6-84,2.3c-13.8,14.1-24.4,30.4-32.9,48c-1,2.1-0.4,5.2,0.2,7.7c2.2,8.2,4.6,16.3,7.3,24.3
			c0.8,2.2,2.4,5.1,4.4,5.9c20.2,7.5,40.5,14.8,60.8,21.9c2.2,0.8,5.1,1.1,7.3,0.3C368.5,160.6,396.8,150.4,425.6,140.1z
			 M462.4,511.4c14.2,4.8,43.9,7.8,58.6,5.8c1.9-0.3,4.3-1.7,5.3-3.4c16.1-26.9,33.6-33.8,63.8-24.8c8-10.7,10.3-23,9.1-35.9
			c-3.6-37.9-25.7-66.6-46.6-94.9c-23.8,20.2-47.1,39.7-70.2,59.5c-1.5,1.3-2.2,4-2.6,6.1c-3.2,17.6-6,35.4-9.4,53
			C468.2,488.4,465.1,499.9,462.4,511.4z M121.4,359.2c-20.1,24.8-37.8,50.9-45.6,82.4c-3.6,14.7-2.9,29.3,4.8,43.7
			c15.5-12.8,32.5-16.1,50.7-8.7c18.4,7.4,27.2,22.3,29.5,42.3c17-1.7,33.5-3.3,50.3-4.9c-0.4-2.1-0.6-3.3-0.8-4.6
			c-5.1-25-10.8-49.8-14.9-74.9c-1.6-10.2-5.3-17.2-13.7-22.7c-6.3-4.1-12-9.2-17.6-14.2C149.9,385.1,135.9,372.3,121.4,359.2z
			 M190,290.7c-17.5,16.2-33.7,31.2-50.8,46.9c17.6,15.9,33.7,30.4,50.8,45.8C190,352,190,322.7,190,290.7z M449.9,442.4
			c-27.3,15.6-53,30.3-80.1,45.8c22.2,6.9,43.2,13.5,65.6,20.5C440.3,486.2,445,464.8,449.9,442.4z M236.7,508.9
			c22.6-7.1,43.7-13.8,65.4-20.6c-27.1-15.6-52.6-30.3-79.8-45.9C227.3,464.8,231.8,486,236.7,508.9z M534,338.2
			c-16.9-15.8-33.1-30.9-50.2-46.9c0,31.8,0,61.3,0,92.4C500.9,368.2,517,353.6,534,338.2z M371.1,186.5
			c26.7,15.5,52.2,30.3,79.2,46c-5.2-22.3-10.2-43.7-15.4-66.1C413,173.3,392.5,179.7,371.1,186.5z M302.9,187.2
			c-15-4.7-29-9.1-43-13.5c-9.3,6.3-21.9,10.6-27,19.4c-6.4,11.1-6.7,25.8-9.7,39.6C250,217.4,275.7,202.7,302.9,187.2z M113,499.3
			c-10.9,0.1-19.9,9-19.9,19.9c-0.1,10.9,8.8,20,19.7,20.1c11.1,0.1,20.5-9.2,20.4-20.3C133,508.1,124,499.2,113,499.3z
			 M240.3,142.1c-0.2-10.9-9.1-19.7-20-19.7c-11.2,0-20.1,9.1-19.9,20.4c0.2,11.2,9.5,20.1,20.7,19.7
			C232,162.1,240.5,153,240.3,142.1z M570,512.8c-11-0.1-19.8,8.7-19.9,19.8c-0.1,11.2,8.3,20,19.3,20.3
			c11.3,0.3,20.3-8.7,20.3-20.2C589.7,521.6,581,512.9,570,512.8z"/>
		<path d="M79.4,250c-0.1,7.2-6.5,13.3-13.7,13.1c-7.1-0.2-13.1-6.6-13-13.9c0.1-7.4,6.1-13.1,13.7-13
			C73.5,236.3,79.5,242.6,79.4,250z"/>
		<path d="M606.4,236.2c7.3,0,13.5,6,13.6,13.1c0.1,6.8-5.9,13-12.7,13.2c-7.4,0.2-14.3-6.4-14.1-13.6
			C593.4,242,599.4,236.2,606.4,236.2z"/>
		<path d="M395.7,602.6c7.2,0,13.2,6.1,13.4,13.5c0.2,6.9-5.7,13.4-12.4,13.6c-7.3,0.2-13.7-6.4-13.7-14.1
			C383,608.3,388.6,602.7,395.7,602.6z"/>
		<path class="st2" d="M425.6,140.1c-28.8,10.3-57,20.5-85.4,30.5c-2.1,0.8-5.1,0.5-7.3-0.3c-20.3-7.1-40.6-14.3-60.8-21.9
			c-1.9-0.7-3.6-3.6-4.4-5.9c-2.7-8-5.1-16.2-7.3-24.3c-0.7-2.4-1.2-5.6-0.2-7.7c8.5-17.6,19.1-33.9,32.9-48
			c26.4-26.9,56.4-27.8,84-2.3C396.1,77.9,418.2,114.4,425.6,140.1z"/>
		<path class="st2" d="M462.4,511.4c2.7-11.5,5.8-23,8.1-34.6c3.4-17.6,6.2-35.3,9.4-53c0.4-2.1,1.1-4.8,2.6-6.1
			c23.1-19.8,46.3-39.3,70.2-59.5c20.8,28.3,43,57,46.6,94.9c1.2,12.9-1.1,25.3-9.1,35.9c-30.2-9-47.7-2-63.8,24.8
			c-1,1.6-3.4,3.1-5.3,3.4C506.3,519.2,476.7,516.2,462.4,511.4z"/>
		<path class="st2" d="M121.4,359.2c14.5,13.1,28.5,25.9,42.7,38.4c5.6,5,11.4,10.1,17.6,14.2c8.5,5.5,12.1,12.5,13.7,22.7
			c4,25.1,9.8,50,14.9,74.9c0.3,1.2,0.4,2.5,0.8,4.6c-16.9,1.6-33.3,3.2-50.3,4.9c-2.3-19.9-11.1-34.9-29.5-42.3
			c-18.2-7.3-35.2-4-50.7,8.7c-7.6-14.4-8.4-29-4.8-43.7C83.6,410.1,101.3,384,121.4,359.2z"/>
		<path class="st2" d="M190,290.7c0,32,0,61.3,0,92.7c-17.1-15.4-33.2-29.9-50.8-45.8C156.2,321.9,172.4,306.9,190,290.7z"/>
		<path class="st2" d="M449.9,442.4c-4.9,22.4-9.6,43.8-14.5,66.3c-22.5-7-43.4-13.6-65.6-20.5C397,472.6,422.6,458,449.9,442.4z"/>
		<path class="st2" d="M236.7,508.9c-4.9-22.9-9.5-44.1-14.3-66.6c27.1,15.6,52.7,30.3,79.8,45.9
			C280.4,495.1,259.3,501.7,236.7,508.9z"/>
		<path class="st2" d="M534,338.2c-17,15.4-33.1,30-50.2,45.5c0-31.1,0-60.6,0-92.4C500.9,307.3,517.1,322.4,534,338.2z"/>
		<path class="st2" d="M371.1,186.5c21.4-6.7,42-13.2,63.8-20c5.2,22.4,10.2,43.7,15.4,66.1C423.3,216.8,397.8,202,371.1,186.5z"/>
		<path class="st2" d="M302.9,187.2c-27.2,15.5-52.9,30.2-79.7,45.5c3.1-13.8,3.3-28.5,9.7-39.6c5.1-8.7,17.7-13.1,27-19.4
			C273.9,178.1,288,182.5,302.9,187.2z"/>
		<path class="st2" d="M113,499.3c11-0.1,20,8.8,20.1,19.7c0.1,11.1-9.2,20.4-20.4,20.3c-10.9-0.1-19.7-9.1-19.7-20.1
			C93.2,508.2,102.1,499.3,113,499.3z"/>
		<path class="st2" d="M240.3,142.1c0.2,10.9-8.4,20-19.2,20.4c-11.2,0.4-20.5-8.4-20.7-19.7c-0.2-11.3,8.7-20.4,19.9-20.4
			C231.2,122.4,240.1,131.2,240.3,142.1z"/>
		<path class="st2" d="M570,512.8c11,0.1,19.7,8.8,19.7,19.9c0,11.5-9,20.5-20.3,20.2c-11-0.3-19.5-9.1-19.3-20.3
			C550.2,521.5,559,512.8,570,512.8z"/>
		<text transform="matrix(1 0 0 1 296.9579 401.2077)" class="st3 st4">2</text>
	</g>
</g>
<g id="Layer_2">
	<g>
		<polygon points="71.4,230.2 136.3,165.9 96.7,126.3 15.3,207 15.3,334.5 71.4,334.5 		"/>
		<polygon points="15.3,473.3 106.4,563.6 146,524 71.4,450.1 71.4,366 15.3,366 		"/>
		<polygon points="168.4,546.3 128.8,585.9 205.2,661.7 327.2,661.7 327.2,605.6 228.2,605.6 		"/>
		<polygon points="228.2,74.7 327.2,74.7 327.2,18.7 205.2,18.7 119.1,104.1 158.7,143.7 		"/>
		<polygon class="st5" points="522.9,147.1 562.9,107.1 473.7,18.7 358.7,18.7 358.7,74.7 449.9,74.7 		"/>
		<polygon class="st5" points="663.6,207 585.3,129.3 545.3,169.3 606.6,230.2 606.6,334.5 663.6,334.5 		"/>
		<polygon points="606.6,450.1 535.6,520.6 575.6,560.6 663.6,473.3 663.6,366 606.6,366 		"/>
		<polygon points="449.9,605.6 358.7,605.6 358.7,661.7 473.7,661.7 553.2,582.8 513.2,542.8 		"/>
	</g>
	<polygon class="st6" points="434.6,108.9 240.8,108.9 103.8,245.9 103.8,439.7 240.8,576.7 434.6,576.7 571.6,439.7 571.6,245.9 	
		"/>
	<text transform="matrix(1 0 0 1 262.9998 453.3332)" class="st3 st7">2</text>
</g>
</svg>
