<?xml version="1.0" encoding="utf-8"?>
<!-- Generator: Adobe Illustrator 23.0.6, SVG Export Plug-In . SVG Version: 6.00 Build 0)  -->
<svg version="1.1" id="Layer_1" xmlns="http://www.w3.org/2000/svg" xmlns:xlink="http://www.w3.org/1999/xlink" x="0px" y="0px"
	 viewBox="0 0 595.28 841.89" style="enable-background:new 0 0 595.28 841.89;" xml:space="preserve">
<style type="text/css">
	.st0{clip-path:url(#SVGID_2_);}
	.st1{fill:#FEFEFE;}
	.st2{fill:#050505;}
	.st3{fill:#2E4E9C;}
</style>
<g>
	<defs>
		<rect id="SVGID_1_" x="101.14" y="180.94" width="393" height="480"/>
	</defs>
	<clipPath id="SVGID_2_">
		<use xlink:href="#SVGID_1_"  style="overflow:visible;"/>
	</clipPath>
	<g class="st0">
		<g>
			<path class="st1" d="M359,181.89c44.5,0,89,0.04,133.5-0.08c2.98-0.01,3.58,0.6,3.58,3.58c-0.09,158-0.09,316,0,474
				c0,2.98-0.6,3.58-3.58,3.58c-129-0.09-258-0.09-387,0c-2.98,0-3.65-0.59-3.59-3.58c0.22-11.5,0.09-23,0.09-34.5
				c2.04,0.66,1.69,2.66,2.21,4.11c6.62,18.68,28.82,33.27,46.86,33.16c98.83-0.56,197.66-0.28,296.49-0.22
				c4.91,0,9.61-0.69,14.19-2.37c30.14-11.09,40.96-39.8,25.52-67.75c-4.27-7.73-8.54-15.45-12.8-23.17
				c-36.7-66.46-73.39-132.94-110.15-199.37c-2.01-3.64-2.74-7.3-2.73-11.41c0.09-44.16,0.08-88.33,0.01-132.49
				c0-3.12,0.22-5.57,3.17-7.66c3.58-2.53,4.61-6.67,5.03-11C370.8,196.39,367.79,187.91,359,181.89z"/>
			<path class="st1" d="M102,606.89c0-140.17,0.02-280.33-0.09-420.5c0-3.75,0.84-4.61,4.59-4.6c43.83,0.15,87.67,0.1,131.5,0.1
				c0.15,1.19-0.97,1.15-1.56,1.55c-11.69,7.74-13.29,26.23-2.86,35.51c1.92,1.71,1.61,3.44,1.61,5.34
				c0.02,41.48-0.3,82.97,0.22,124.44c0.14,11.11-2.55,20.56-7.9,30.15c-39.87,71.53-79.37,143.26-119.11,214.85
				C106.01,598.03,105.16,603.01,102,606.89z"/>
			<path class="st2" d="M102,606.89c3.16-3.88,4.01-8.86,6.4-13.15c39.74-71.6,79.24-143.33,119.11-214.85
				c5.34-9.59,8.04-19.04,7.9-30.15c-0.52-41.48-0.2-82.96-0.22-124.44c0-1.9,0.31-3.63-1.61-5.34
				c-10.43-9.28-8.83-27.77,2.86-35.51c0.6-0.4,1.72-0.36,1.56-1.55c40.33,0,80.67,0,121,0c8.79,6.02,11.8,14.5,10.79,24.83
				c-0.42,4.32-1.45,8.47-5.03,11c-2.96,2.09-3.18,4.53-3.17,7.66c0.07,44.16,0.08,88.33-0.01,132.49
				c-0.01,4.11,0.72,7.77,2.73,11.41c36.76,66.43,73.45,132.9,110.15,199.37c4.27,7.73,8.54,15.45,12.8,23.17
				c15.44,27.95,4.62,56.66-25.52,67.75c-4.58,1.69-9.27,2.38-14.19,2.37c-98.83-0.06-197.66-0.34-296.49,0.22
				c-18.04,0.1-40.24-14.49-46.86-33.16c-0.51-1.45-0.16-3.45-2.21-4.11C102,618.89,102,612.89,102,606.89z M298.57,644.16
				c42.33,0,84.65-0.03,126.98,0.02c11.27,0.01,21.35-3.33,30.09-10.36c9.14-7.36,13.08-16.96,11.52-28.71
				c-0.92-6.9-3.66-13.09-6.92-19.13C422.93,516.98,385.67,447.99,348.38,379c-1.03-1.9-1.97-3.73-1.97-6.06
				c0.05-51.66,0.05-103.31,0.02-154.97c0-1.99,0.11-3.16,2.65-3.75c5.46-1.27,6.78-4.84,5.72-13.43c-0.54-4.41-2.94-6.21-8.56-6.23
				c-9.66-0.04-19.33-0.01-28.99-0.01c-22,0-43.99-0.01-65.99,0.01c-7.68,0.01-9.27,1.67-9.29,9.49c0,1.33-0.03,2.67,0.03,4
				c0.17,3.21,1.8,5.75,4.93,6.01c3.76,0.31,3.5,2.43,3.5,5.04c-0.04,50.82-0.04,101.65-0.01,152.47c0,2.54-0.33,4.83-1.59,7.16
				c-17.45,32.2-34.79,64.47-52.2,96.69c-20.18,37.35-40.51,74.63-60.58,112.04c-11.62,21.65-4.57,42.23,17.67,52.74
				c5.82,2.75,11.9,4.02,18.37,4C214.25,644.12,256.41,644.15,298.57,644.16z"/>
			<path class="st1" d="M298.57,644.15c-42.16,0-84.32-0.04-126.48,0.04c-6.47,0.01-12.55-1.25-18.37-4
				c-22.24-10.5-29.29-31.08-17.67-52.74c20.08-37.41,40.4-74.69,60.58-112.04c17.41-32.23,34.75-64.49,52.2-96.69
				c1.26-2.32,1.59-4.62,1.59-7.16c-0.03-50.82-0.03-101.65,0.01-152.47c0-2.61,0.27-4.73-3.5-5.04c-3.13-0.26-4.76-2.8-4.93-6.01
				c-0.07-1.33-0.04-2.67-0.03-4c0.01-7.83,1.61-9.49,9.29-9.49c22-0.02,43.99-0.01,65.99-0.01c9.66,0,19.33-0.03,28.99,0.01
				c5.62,0.02,8.02,1.82,8.56,6.23c1.06,8.59-0.26,12.16-5.72,13.43c-2.54,0.59-2.65,1.76-2.65,3.75
				c0.03,51.66,0.03,103.31-0.02,154.97c0,2.33,0.94,4.15,1.97,6.06c37.28,68.99,74.55,137.99,111.84,206.97
				c3.27,6.04,6.01,12.24,6.92,19.13c1.56,11.76-2.37,21.35-11.52,28.71c-8.74,7.03-18.82,10.37-30.09,10.36
				C383.22,644.12,340.89,644.16,298.57,644.15z M300.81,631.1c7.67,0,15.33,0,23,0c30.16,0,60.33,0.16,90.49-0.05
				c28.9-0.2,43.04-23.54,30.08-49.21c-0.08-0.15-0.17-0.29-0.25-0.44c-28.39-53.94-56.75-107.9-85.18-161.82
				c-6.11-11.58-13.01-13.83-24.62-7.85c-7.1,3.66-13.88,7.93-20.79,11.95c-22.45,13.04-45.93,16.14-70.57,7.14
				c-2.63-0.96-3.75-0.34-5,1.98c-27.08,49.92-54.26,99.79-81.33,149.72c-3.39,6.24-5.21,12.99-4.06,20.23
				c2.48,15.57,18.17,28.3,35.25,28.33C225.48,631.14,263.15,631.09,300.81,631.1z M316.02,290.94c0,21.47,0,42.95,0,64.42
				c0,1.17-0.06,2.34,0.02,3.49c0.31,4.31,3.02,7.21,6.85,7.05c4.41-0.18,6.51-2.84,6.85-7.07c0.08-0.99,0.03-2,0.03-3
				c0-43.28,0-86.56,0-129.84c0-1.16,0.08-2.34-0.07-3.49c-0.5-4-2.71-6.55-6.83-6.53c-4.09,0.02-6.36,2.5-6.8,6.55
				c-0.14,1.32-0.05,2.66-0.05,3.99C316.02,247.99,316.02,269.46,316.02,290.94z"/>
			<path class="st3" d="M300.81,631.09c-37.66,0-75.33,0.05-112.99-0.02c-17.08-0.03-32.77-12.76-35.25-28.33
				c-1.15-7.23,0.68-13.98,4.06-20.23c27.07-49.93,54.25-99.8,81.33-149.72c1.26-2.32,2.37-2.94,5-1.98
				c24.65,8.99,48.13,5.9,70.57-7.14c6.91-4.02,13.69-8.29,20.79-11.95c11.61-5.98,18.51-3.73,24.62,7.85
				c28.43,53.92,56.79,107.88,85.18,161.82c0.08,0.15,0.17,0.29,0.25,0.44c12.97,25.67-1.18,49.01-30.08,49.21
				c-30.16,0.21-60.33,0.05-90.49,0.05C316.14,631.1,308.47,631.1,300.81,631.09z M314.88,531.9c0-20.82,0.08-41.63-0.06-62.45
				c-0.04-5.42,2.48-12.85-1.06-15.71c-3.37-2.71-10.51-0.6-15.97-0.92c-2.79-0.16-3.64,1.08-4.29,3.49
				c-3.41,12.5-6.9,24.98-10.53,37.42c-1.21,4.15-0.73,6.58,4.31,5.82c3.4-0.51,4.24,1.08,4.11,4.22
				c-0.21,5.32-0.06,10.66-0.06,15.99c0,28.48,0.11,56.96-0.11,85.43c-0.04,4.54,1.29,5.81,5.62,5.45c4.47-0.37,9.01-0.34,13.48,0
				c3.87,0.3,4.68-1.14,4.65-4.79C314.81,581.2,314.88,556.55,314.88,531.9z"/>
			<path class="st2" d="M316.02,290.94c0-21.47,0-42.95,0-64.42c0-1.33-0.09-2.67,0.05-3.99c0.43-4.05,2.71-6.52,6.8-6.55
				c4.12-0.03,6.33,2.53,6.83,6.53c0.14,1.15,0.07,2.33,0.07,3.49c0,43.28,0,86.56,0,129.84c0,1,0.05,2-0.03,3
				c-0.34,4.23-2.44,6.89-6.85,7.07c-3.82,0.16-6.54-2.74-6.85-7.05c-0.08-1.16-0.02-2.33-0.02-3.49
				C316.02,333.88,316.02,312.41,316.02,290.94z"/>
			<path class="st1" d="M314.88,531.9c0,24.65-0.08,49.3,0.08,73.94c0.02,3.66-0.78,5.09-4.65,4.79c-4.47-0.34-9.01-0.37-13.48,0
				c-4.33,0.36-5.66-0.91-5.62-5.45c0.22-28.48,0.11-56.95,0.11-85.43c0-5.33-0.15-10.66,0.06-15.99c0.13-3.14-0.71-4.74-4.11-4.22
				c-5.04,0.76-5.52-1.68-4.31-5.82c3.63-12.44,7.13-24.92,10.53-37.42c0.66-2.41,1.5-3.65,4.29-3.49
				c5.46,0.32,12.6-1.79,15.97,0.92c3.55,2.86,1.03,10.29,1.06,15.71C314.97,490.27,314.88,511.09,314.88,531.9z"/>
		</g>
	</g>
</g>
</svg>
