<?xml version="1.0" encoding="utf-8"?>
<!-- Generator: Adobe Illustrator 23.0.6, SVG Export Plug-In . SVG Version: 6.00 Build 0)  -->
<svg version="1.1" id="Layer_1" xmlns="http://www.w3.org/2000/svg" xmlns:xlink="http://www.w3.org/1999/xlink" x="0px" y="0px"
	 viewBox="0 0 393 480" style="enable-background:new 0 0 393 480;" xml:space="preserve">
<style type="text/css">
	.st0{fill:#FEFEFE;}
	.st1{fill:#050505;}
	.st2{fill:#019E44;}
</style>
<g>
	<g>
		<path class="st0" d="M258,1c43.79,0,87.59,0.09,131.38-0.13c4.33-0.02,4.71,1.22,4.71,5.01C393.98,146.25,394,286.62,394,427
			c-4.4-10.51-10.09-20.35-15.59-30.3c-38.53-69.77-77.02-139.57-115.59-209.32c-1.59-2.88-2.24-5.75-2.24-9.01
			c0.06-44.97,0.07-89.94-0.01-134.91c0-2.71,0.53-4.58,2.85-6.28c3.71-2.73,4.94-6.85,5.37-11.36C269.79,15.49,266.78,7.02,258,1z"
			/>
		<path class="st0" d="M1,426C1,285.83,1.02,145.67,0.91,5.5c0-3.75,0.84-4.61,4.59-4.6C49.33,1.05,93.17,1,137,1
			c0.15,1.19-0.97,1.15-1.57,1.55c-11.69,7.74-13.29,26.23-2.86,35.51c1.92,1.71,1.61,3.44,1.61,5.34
			c0.02,41.48-0.3,82.97,0.22,124.44c0.14,11.11-2.55,20.56-7.9,30.15C86.64,269.52,47.14,341.25,7.4,412.84
			C5.01,417.14,4.16,422.12,1,426z"/>
		<path class="st1" d="M1,426c3.16-3.88,4.01-8.86,6.4-13.16c39.74-71.6,79.24-143.33,119.11-214.85c5.34-9.59,8.04-19.04,7.9-30.15
			c-0.52-41.48-0.2-82.96-0.22-124.44c0-1.9,0.31-3.63-1.61-5.34c-10.43-9.28-8.83-27.77,2.86-35.51c0.6-0.4,1.72-0.36,1.57-1.55
			c40.33,0,80.67,0,121,0c8.78,6.02,11.79,14.49,10.79,24.81c-0.44,4.51-1.66,8.63-5.37,11.36c-2.32,1.7-2.85,3.58-2.85,6.28
			c0.08,44.97,0.08,89.94,0.01,134.91c0,3.27,0.65,6.13,2.24,9.01c38.56,69.75,77.06,139.55,115.59,209.32
			c5.49,9.95,11.19,19.79,15.59,30.3c0,5.67,0,11.33,0,17c-1.05,0.14-1.16,1.04-1.41,1.8c-6.11,17.95-18.61,29.05-36.66,34.23
			c-0.37,0.11-0.62,0.64-0.92,0.98c-105.67,0-211.33,0-317,0c-0.03-1.33-1.15-1.46-2.04-1.79C19.68,473.16,8.08,462.44,2.5,445.7
			c-0.26-0.77-0.44-1.62-1.5-1.7C1,438,1,432,1,426z M197.99,463.27c42.16,0,84.32-0.04,126.48,0.02
			c11.27,0.02,21.35-3.3,30.1-10.31c9.16-7.34,13.13-16.92,11.59-28.68c-0.9-6.9-3.63-13.1-6.9-19.14
			c-37.2-68.85-74.36-137.71-111.62-206.52c-1.58-2.91-2.23-5.74-2.22-9c0.07-37.16,0.04-74.32,0.04-111.48
			c0-13.5-0.03-26.99,0.04-40.49c0.01-1.58-0.89-3.42,2.01-4.24c6.21-1.75,7.7-5.44,6.24-13.94c-0.93-5.44-4.94-5.87-9.43-5.86
			c-28.83,0.06-57.66,0.03-86.48,0.03c-3.5,0-7-0.06-10.5,0.06c-3.43,0.12-5.77,1.97-6.19,5.37c-0.36,2.95-0.28,6-0.01,8.98
			c0.24,2.74,2.02,4.8,4.73,5.11c3.01,0.34,3.62,1.58,3.62,4.45c-0.1,51.32-0.08,102.65-0.04,153.97c0,2.24-0.51,4.18-1.58,6.16
			c-17.34,32.07-34.61,64.19-51.94,96.27c-20.26,37.5-40.67,74.92-60.83,112.47c-11.79,21.97-4.34,43.03,18.46,53.21
			c5.55,2.48,11.34,3.61,17.46,3.6C113.34,463.23,155.66,463.26,197.99,463.27z"/>
		<path class="st0" d="M1,444c1.05,0.08,1.24,0.93,1.5,1.7c5.58,16.74,17.19,27.46,33.47,33.51c0.89,0.33,2.01,0.46,2.04,1.79
			c-11.5,0-23-0.07-34.5,0.06c-2.15,0.03-2.59-0.41-2.57-2.57C1.07,467,1,455.5,1,444z"/>
		<path class="st0" d="M355,481c0.31-0.33,0.55-0.87,0.92-0.98c18.05-5.18,30.55-16.27,36.66-34.23c0.26-0.76,0.36-1.66,1.41-1.8
			c0,11.5-0.07,23,0.06,34.5c0.03,2.15-0.41,2.59-2.57,2.57C379.33,480.93,367.17,481,355,481z"/>
		<path class="st0" d="M197.99,463.26c-42.33,0-84.65-0.04-126.98,0.04c-6.12,0.01-11.91-1.12-17.46-3.6
			c-22.81-10.19-30.26-31.25-18.46-53.21c20.16-37.55,40.57-74.97,60.83-112.47c17.33-32.08,34.6-64.19,51.94-96.27
			c1.07-1.97,1.58-3.91,1.58-6.16c-0.04-51.32-0.06-102.65,0.04-153.97c0.01-2.87-0.61-4.11-3.62-4.45
			c-2.71-0.31-4.48-2.37-4.73-5.11c-0.26-2.97-0.35-6.02,0.01-8.98c0.42-3.4,2.76-5.25,6.19-5.37c3.5-0.12,7-0.06,10.5-0.06
			c28.83,0,57.66,0.03,86.48-0.03c4.49-0.01,8.5,0.42,9.43,5.86c1.46,8.5-0.03,12.19-6.24,13.94c-2.9,0.82-2.01,2.66-2.01,4.24
			c-0.07,13.5-0.04,26.99-0.04,40.49c0,37.16,0.02,74.32-0.04,111.48c-0.01,3.26,0.64,6.09,2.22,9
			c37.26,68.81,74.42,137.68,111.62,206.52c3.27,6.04,5.99,12.24,6.9,19.14c1.54,11.76-2.43,21.34-11.59,28.68
			c-8.75,7.01-18.84,10.33-30.1,10.31C282.3,463.23,240.15,463.27,197.99,463.26z M199.92,450.2c6.67,0,13.33,0,20,0
			c30.83,0,61.65,0.08,92.48-0.03c30.08-0.11,44.25-23.47,30.53-50.15c-2.89-5.62-5.9-11.19-8.85-16.79
			c-25.19-47.88-50.37-95.77-75.59-143.64c-6.79-12.88-13.62-15.03-26.43-8.21c-6.17,3.28-12.11,6.99-18.12,10.57
			c-22.92,13.66-46.95,17.23-72.32,7.81c-2.64-0.98-3.5-0.11-4.55,1.92c-2.37,4.58-4.89,9.09-7.36,13.62
			c-24.35,44.75-48.69,89.5-73.05,134.24c-3.73,6.86-6.3,14.01-5.15,21.97c2.29,15.82,18.03,28.62,35.42,28.65
			C124.6,450.25,162.26,450.2,199.92,450.2z M215.02,110c0,8.49,0,16.98,0,25.47c0,13.98-0.05,27.97,0.04,41.95
			c0.03,4.68,2.81,7.6,6.78,7.63c3.99,0.02,6.63-2.85,6.91-7.56c0.06-1,0.02-2,0.02-3c0-42.95,0.01-85.89-0.02-128.84
			c0-1.98,0.05-4.06-0.51-5.92c-1.44-4.78-7.2-6.25-10.88-2.98c-2.23,1.98-2.35,4.59-2.35,7.32
			C215.04,66.05,215.02,88.03,215.02,110z"/>
		<path class="st2" d="M199.92,450.2c-37.66,0-75.32,0.05-112.98-0.02c-17.39-0.03-33.13-12.83-35.42-28.65
			c-1.15-7.96,1.41-15.11,5.15-21.97c24.36-44.74,48.7-89.49,73.05-134.24c2.47-4.53,4.99-9.04,7.36-13.62
			c1.05-2.03,1.91-2.9,4.55-1.92c25.36,9.41,49.4,5.85,72.32-7.81c6.01-3.58,11.95-7.29,18.12-10.57
			c12.82-6.82,19.64-4.67,26.43,8.21c25.22,47.86,50.4,95.76,75.59,143.64c2.95,5.6,5.95,11.16,8.85,16.79
			c13.72,26.68-0.46,50.04-30.53,50.15c-30.83,0.11-61.65,0.03-92.48,0.03C213.25,450.2,206.58,450.2,199.92,450.2z M188.91,408.76
			c-0.36-2.1,0.76-3.07,1.39-4.17c13.26-23.22,26.57-46.41,39.86-69.62c2.9-5.07,5.74-10.22,5.81-16.24
			c0.12-11.49,0.14-22.99-0.01-34.49c-0.09-7.14-4.76-12.07-11.88-12.16c-16.99-0.2-33.99-0.19-50.98-0.01
			c-7.35,0.08-11.99,5.04-12.07,12.49c-0.12,11.16,0.05,22.33-0.09,33.49c-0.04,2.8,0.72,3.81,3.61,3.7
			c5.16-0.21,10.33-0.23,15.49,0c3.21,0.14,4.4-0.75,4.28-4.16c-0.26-7.15,0.07-14.33-0.15-21.49c-0.09-3.14,1.01-3.99,4.01-3.91
			c6.83,0.19,13.66,0.18,20.49,0c2.87-0.08,3.76,0.87,3.69,3.7c-0.17,6.83-0.19,13.66,0,20.49c0.1,3.47-0.76,6.43-2.48,9.43
			c-15.72,27.53-31.1,55.26-47.17,82.59c-3.62,6.16-3.51,12.19-3.65,18.6c-0.05,2.38,1.18,2.7,3.11,2.7
			c23.66-0.03,47.32-0.04,70.97,0.02c2.16,0.01,2.92-0.73,2.87-2.88c-0.11-4.66-0.23-9.34,0.03-13.99c0.19-3.25-0.81-4.2-4.11-4.16
			C217.63,408.86,203.31,408.76,188.91,408.76z"/>
		<path class="st1" d="M215.02,110c0-21.97,0.01-43.95-0.02-65.92c0-2.73,0.13-5.34,2.35-7.32c3.68-3.28,9.44-1.8,10.88,2.98
			c0.56,1.86,0.51,3.94,0.51,5.92c0.03,42.95,0.02,85.89,0.02,128.84c0,1,0.04,2-0.02,3c-0.28,4.71-2.92,7.58-6.91,7.56
			c-3.98-0.02-6.75-2.94-6.78-7.63c-0.09-13.98-0.03-27.97-0.04-41.95C215.02,126.98,215.02,118.49,215.02,110z"/>
		<path class="st0" d="M188.91,408.76c14.4,0,28.72,0.1,43.04-0.08c3.3-0.04,4.3,0.91,4.11,4.16c-0.27,4.65-0.15,9.33-0.03,13.99
			c0.05,2.16-0.71,2.89-2.87,2.88c-23.66-0.05-47.31-0.04-70.97-0.02c-1.93,0-3.16-0.32-3.11-2.7c0.14-6.41,0.03-12.45,3.65-18.6
			c16.07-27.33,31.45-55.06,47.17-82.59c1.71-3,2.58-5.96,2.48-9.43c-0.2-6.82-0.17-13.66,0-20.49c0.07-2.83-0.83-3.78-3.69-3.7
			c-6.83,0.18-13.66,0.19-20.49,0c-3-0.08-4.11,0.76-4.01,3.91c0.21,7.16-0.12,14.33,0.15,21.49c0.12,3.41-1.07,4.31-4.28,4.16
			c-5.15-0.23-10.33-0.21-15.49,0c-2.9,0.12-3.65-0.9-3.61-3.7c0.14-11.16-0.03-22.32,0.09-33.49c0.08-7.45,4.72-12.41,12.07-12.49
			c16.99-0.18,33.99-0.19,50.98,0.01c7.11,0.08,11.78,5.01,11.88,12.16c0.15,11.49,0.13,22.99,0.01,34.49
			c-0.06,6.02-2.91,11.18-5.81,16.24c-13.28,23.21-26.59,46.4-39.86,69.62C189.67,405.69,188.55,406.65,188.91,408.76z"/>
	</g>
</g>
</svg>
