<?xml version="1.0" encoding="utf-8"?>
<!-- Generator: Adobe Illustrator 23.0.6, SVG Export Plug-In . SVG Version: 6.00 Build 0)  -->
<svg version="1.1" id="Layer_1" xmlns="http://www.w3.org/2000/svg" xmlns:xlink="http://www.w3.org/1999/xlink" x="0px" y="0px"
	 viewBox="0 0 566.93 566.93" style="enable-background:new 0 0 566.93 566.93;" xml:space="preserve">
<style type="text/css">
	.st0{fill:#FEFEFE;}
	.st1{fill:#050505;}
	.st2{fill:#F0E401;}
</style>
<g>
	<path class="st0" d="M344.83,44.41c43.79,0,87.59,0.09,131.38-0.13c4.33-0.02,4.71,1.22,4.71,5.01
		c-0.11,140.38-0.09,280.75-0.09,421.13c-4.4-10.51-10.09-20.35-15.59-30.3c-38.53-69.77-77.02-139.57-115.58-209.32
		c-1.59-2.88-2.24-5.75-2.24-9.01c0.06-44.97,0.07-89.94-0.01-134.91c0-2.71,0.53-4.58,2.85-6.28c3.71-2.73,4.94-6.85,5.37-11.36
		C356.62,58.9,353.61,50.43,344.83,44.41z"/>
	<path class="st0" d="M87.83,469.41c0-140.17,0.02-280.33-0.09-420.5c0-3.75,0.84-4.61,4.59-4.6c43.83,0.15,87.67,0.1,131.5,0.1
		c0.15,1.19-0.97,1.15-1.57,1.55c-11.69,7.74-13.29,26.23-2.86,35.51c1.92,1.71,1.61,3.44,1.61,5.34
		c0.02,40.98-0.35,81.97,0.24,122.94c0.17,12.14-2.73,22.49-8.59,32.98C172.97,313.8,133.73,385.1,94.22,456.25
		C91.84,460.55,90.99,465.53,87.83,469.41z"/>
	<path class="st1" d="M87.83,469.41c3.16-3.88,4.01-8.86,6.4-13.16c39.51-71.15,78.75-142.46,118.43-213.52
		c5.86-10.5,8.77-20.84,8.59-32.98c-0.58-40.97-0.22-81.96-0.24-122.94c0-1.9,0.31-3.63-1.61-5.34
		c-10.43-9.28-8.83-27.77,2.86-35.51c0.6-0.4,1.72-0.36,1.57-1.55c40.33,0,80.67,0,121,0c8.78,6.02,11.79,14.49,10.79,24.81
		c-0.44,4.51-1.66,8.63-5.37,11.36c-2.32,1.7-2.85,3.58-2.85,6.28c0.08,44.97,0.08,89.94,0.01,134.91c0,3.27,0.65,6.13,2.24,9.01
		c38.56,69.75,77.06,139.55,115.58,209.32c5.49,9.95,11.19,19.79,15.59,30.3c0,5.67,0,11.33,0,17c-1.05,0.14-1.16,1.04-1.41,1.8
		c-6.11,17.95-18.61,29.05-36.66,34.23c-0.37,0.11-0.62,0.64-0.92,0.98c-105.67,0-211.33,0-317,0c-0.03-1.33-1.15-1.46-2.04-1.79
		c-16.28-6.06-27.89-16.77-33.47-33.51c-0.26-0.77-0.44-1.62-1.5-1.7C87.83,481.41,87.83,475.41,87.83,469.41z M284.32,506.67
		c42.33,0,84.65-0.04,126.98,0.02c11.27,0.02,21.35-3.3,30.1-10.32c9.15-7.34,13.12-16.92,11.58-28.69c-0.9-6.9-3.64-13.1-6.9-19.14
		c-37.2-68.85-74.36-137.71-111.62-206.52c-1.58-2.91-2.22-5.75-2.22-9c0.07-37.49,0.04-74.99,0.04-112.48
		c0-13.16-0.03-26.33,0.04-39.49c0.01-1.33-0.92-3.62,1.08-3.86c7.67-0.88,7.41-6.29,7.27-11.83c-0.16-6.2-2.18-8.27-8.54-8.3
		c-10.66-0.05-21.33-0.01-31.99-0.01c-21.33,0-42.66,0.03-63.99-0.03c-3.84-0.01-7.3,0.77-8.05,4.99c-0.58,3.22-0.38,6.66-0.03,9.95
		c0.26,2.48,2.11,4.38,4.62,4.62c3.03,0.29,3.61,1.59,3.61,4.45c-0.1,51.32-0.08,102.65-0.04,153.97c0,2.24-0.51,4.18-1.58,6.16
		c-16.48,30.46-32.87,60.97-49.33,91.43c-21.06,38.96-42.24,77.85-63.24,116.85c-12.24,22.73-4.26,44.41,19.66,54.24
		c5.17,2.12,10.49,3.02,16.08,3.02C200.01,506.65,242.16,506.67,284.32,506.67z"/>
	<path class="st0" d="M87.83,487.41c1.05,0.08,1.24,0.93,1.5,1.7c5.58,16.74,17.19,27.46,33.47,33.51c0.89,0.33,2.01,0.46,2.04,1.79
		c-11.5,0-23-0.07-34.5,0.06c-2.15,0.03-2.59-0.41-2.57-2.57C87.9,510.41,87.83,498.91,87.83,487.41z"/>
	<path class="st0" d="M441.83,524.41c0.31-0.33,0.55-0.87,0.92-0.98c18.05-5.18,30.55-16.27,36.66-34.23
		c0.26-0.76,0.36-1.66,1.41-1.8c0,11.5-0.07,23,0.06,34.5c0.03,2.15-0.41,2.59-2.57,2.57C466.16,524.34,453.99,524.41,441.83,524.41
		z"/>
	<path class="st0" d="M284.32,506.67c-42.16,0-84.32-0.03-126.47,0.03c-5.59,0.01-10.91-0.89-16.08-3.02
		c-23.92-9.83-31.9-31.51-19.66-54.24c21-38.99,42.18-77.89,63.24-116.85c16.47-30.46,32.86-60.97,49.33-91.43
		c1.07-1.97,1.58-3.91,1.58-6.16c-0.04-51.32-0.06-102.65,0.04-153.97c0.01-2.86-0.58-4.16-3.61-4.45
		c-2.51-0.24-4.36-2.15-4.62-4.62c-0.35-3.29-0.54-6.72,0.03-9.95c0.75-4.22,4.21-5,8.05-4.99c21.33,0.06,42.66,0.03,63.99,0.03
		c10.66,0,21.33-0.03,31.99,0.01c6.36,0.03,8.38,2.09,8.54,8.3c0.14,5.54,0.4,10.94-7.27,11.83c-2,0.23-1.07,2.52-1.08,3.86
		c-0.07,13.16-0.04,26.33-0.04,39.49c0,37.49,0.02,74.99-0.04,112.48c-0.01,3.25,0.64,6.09,2.22,9
		c37.26,68.81,74.43,137.68,111.62,206.52c3.27,6.04,6,12.24,6.9,19.14c1.54,11.76-2.43,21.34-11.58,28.69
		c-8.75,7.02-18.84,10.33-30.1,10.32C368.97,506.64,326.65,506.67,284.32,506.67z M286.57,493.59c37.49,0,74.99-0.02,112.48,0.01
		c9.89,0.01,18.74-2.95,26.31-9.24c8.07-6.69,11.39-15.32,9.7-25.8c-0.94-5.85-3.22-11.17-5.95-16.35
		c-23.05-43.77-46.09-87.55-69.14-131.33c-5.2-9.88-10.28-19.81-15.64-29.6c-5.75-10.5-12.5-12.63-23.25-7.55
		c-2.71,1.28-5.29,2.82-7.9,4.3c-6.67,3.77-13.2,7.81-20,11.32c-20.47,10.58-41.68,12-63.39,4.3c-3.32-1.18-4.79-0.79-6.51,2.45
		c-9.04,17.08-18.38,34-27.61,50.97c-17.44,32.04-34.88,64.08-52.31,96.13c-3.65,6.7-6.14,13.74-5.04,21.51
		c2.26,15.93,17.94,28.82,35.24,28.86C211.25,493.65,248.91,493.59,286.57,493.59z M315.6,153.7c0-21.64,0-43.28-0.01-64.92
		c0-1.5,0.1-3.03-0.18-4.48c-0.72-3.76-3.09-5.97-6.94-5.82c-3.84,0.15-6.04,2.49-6.55,6.29c-0.17,1.31-0.07,2.66-0.07,3.99
		c0,43.11,0,86.23,0,129.34c0,1.17-0.06,2.34,0.03,3.49c0.33,4.04,2.47,6.5,6.57,6.82c3.82,0.3,6.67-2.52,7.09-6.8
		c0.13-1.32,0.05-2.66,0.05-3.99C315.59,196.32,315.59,175.01,315.6,153.7z"/>
	<path class="st2" d="M286.57,493.59c-37.66,0-75.32,0.05-112.98-0.02c-17.3-0.03-32.98-12.93-35.24-28.86
		c-1.1-7.78,1.39-14.81,5.04-21.51c17.43-32.05,34.87-64.09,52.31-96.13c9.24-16.97,18.57-33.89,27.61-50.97
		c1.72-3.24,3.19-3.63,6.51-2.45c21.7,7.69,42.92,6.27,63.39-4.3c6.8-3.51,13.33-7.55,20-11.32c2.61-1.48,5.19-3.02,7.9-4.3
		c10.74-5.07,17.5-2.95,23.25,7.55c5.36,9.79,10.44,19.73,15.64,29.6c23.05,43.78,46.09,87.56,69.14,131.33
		c2.73,5.18,5,10.5,5.95,16.35c1.69,10.48-1.63,19.11-9.7,25.8c-7.58,6.29-16.43,9.25-26.31,9.24
		C361.56,493.57,324.06,493.59,286.57,493.59z M301.46,390.9c4.84-3.12,9.3-6,13.76-8.88c4.91-3.17,8.2-7.62,8.31-13.48
		c0.25-13.66,0.42-27.34-0.1-40.98c-0.31-8.24-5.19-12.11-13.5-12.14c-16.67-0.06-33.33-0.07-50,0.01
		c-8.35,0.04-13,4.67-13.08,13.03c-0.11,10.83,0.03,21.67-0.07,32.5c-0.02,2.46,0.48,3.61,3.26,3.5c5.49-0.2,11-0.21,16.5,0
		c2.92,0.11,3.68-0.97,3.61-3.73c-0.16-6.83,0.05-13.67-0.1-20.5c-0.06-2.85,0.53-4.25,3.8-4.15c7.49,0.21,15,0.18,22.5,0.01
		c2.9-0.07,3.67,0.97,3.63,3.74c-0.15,8.66-0.17,17.33,0.02,26c0.06,2.62-1.19,3.89-3.09,5.15c-7.62,5.06-15.22,10.17-22.79,15.31
		c-4.47,3.04-4.44,6.15,0.07,9.27c7.53,5.21,15.06,10.41,22.67,15.51c1.92,1.28,3.17,2.5,3.13,5.1c-0.15,11-0.14,22-0.01,33
		c0.03,2.65-0.83,3.44-3.43,3.39c-7.66-0.14-15.34-0.18-23,0.01c-3.09,0.08-3.54-1.31-3.49-3.9c0.12-7.33-0.11-14.67,0.11-22
		c0.1-3.33-0.65-4.84-4.34-4.61c-4.98,0.3-10.01,0.29-14.99,0c-3.47-0.2-4.11,1.21-4.06,4.3c0.16,10.83,0.03,21.67,0.07,32.5
		c0.04,9.79,4.55,14.25,14.47,14.28c15.83,0.04,31.67,0.04,47.5,0c9.86-0.02,14.69-4.39,14.84-14.11c0.23-15,0.16-30,0.02-45
		c-0.06-6.24-2.8-11.15-8.34-14.42C310.76,396.91,306.34,393.98,301.46,390.9z"/>
	<path class="st1" d="M315.59,153.7c0,21.31,0,42.61,0,63.92c0,1.33,0.08,2.67-0.05,3.99c-0.42,4.28-3.27,7.1-7.09,6.8
		c-4.1-0.32-6.24-2.77-6.57-6.82c-0.09-1.16-0.03-2.33-0.03-3.49c0-43.11,0-86.23,0-129.34c0-1.33-0.11-2.68,0.07-3.99
		c0.51-3.8,2.71-6.14,6.55-6.29c3.86-0.15,6.23,2.06,6.94,5.82c0.28,1.45,0.18,2.98,0.18,4.48
		C315.6,110.42,315.6,132.06,315.59,153.7z"/>
	<path class="st0" d="M301.46,390.9c4.88,3.08,9.3,6.01,13.86,8.7c5.54,3.27,8.28,8.18,8.34,14.42c0.14,15,0.22,30-0.02,45
		c-0.15,9.73-4.98,14.09-14.84,14.11c-15.83,0.04-31.67,0.04-47.5,0c-9.92-0.02-14.43-4.49-14.47-14.28
		c-0.04-10.83,0.09-21.67-0.07-32.5c-0.04-3.09,0.59-4.51,4.06-4.3c4.98,0.29,10.01,0.3,14.99,0c3.69-0.22,4.44,1.28,4.34,4.61
		c-0.21,7.33,0.01,14.67-0.11,22c-0.04,2.59,0.41,3.97,3.49,3.9c7.66-0.19,15.33-0.16,23-0.01c2.6,0.05,3.46-0.74,3.43-3.39
		c-0.13-11-0.14-22,0.01-33c0.04-2.61-1.22-3.82-3.13-5.1c-7.61-5.09-15.14-10.3-22.67-15.51c-4.51-3.12-4.54-6.23-0.07-9.27
		c7.57-5.15,15.17-10.25,22.79-15.31c1.89-1.26,3.14-2.53,3.09-5.15c-0.19-8.66-0.16-17.33-0.02-26c0.05-2.77-0.72-3.81-3.63-3.74
		c-7.5,0.18-15,0.2-22.5-0.01c-3.28-0.09-3.87,1.3-3.8,4.15c0.15,6.83-0.06,13.67,0.1,20.5c0.07,2.76-0.69,3.84-3.61,3.73
		c-5.49-0.21-11-0.2-16.5,0c-2.79,0.1-3.29-1.04-3.26-3.5c0.11-10.83-0.03-21.67,0.07-32.5c0.08-8.36,4.73-12.99,13.08-13.03
		c16.67-0.08,33.33-0.06,50-0.01c8.31,0.03,13.19,3.9,13.5,12.14c0.52,13.64,0.35,27.32,0.1,40.98c-0.11,5.86-3.4,10.3-8.31,13.48
		C310.76,384.91,306.3,387.78,301.46,390.9z"/>
</g>
</svg>
