<?xml version="1.0" encoding="utf-8"?>
<!-- Generator: Adobe Illustrator 23.0.6, SVG Export Plug-In . SVG Version: 6.00 Build 0)  -->
<svg version="1.1" id="Layer_1" xmlns="http://www.w3.org/2000/svg" xmlns:xlink="http://www.w3.org/1999/xlink" x="0px" y="0px"
	 viewBox="0 0 393 480" style="enable-background:new 0 0 393 480;" xml:space="preserve">
<style type="text/css">
	.st0{fill:#050505;}
	.st1{fill:#FCFBFB;}
	.st2{fill:#E83335;}
	.st3{fill:#090909;}
	.st4{fill:#FEFBFB;}
</style>
<g>
	<path class="st0" d="M1,426c3.16-3.88,4.01-8.86,6.4-13.16c39.74-71.6,79.24-143.33,119.11-214.85c5.34-9.59,8.04-19.04,7.9-30.15
		c-0.52-41.48-0.2-82.96-0.22-124.44c0-1.9,0.31-3.63-1.61-5.34c-10.43-9.28-8.83-27.77,2.86-35.51c0.6-0.4,1.72-0.36,1.57-1.55
		c40.33,0,80.67,0,121,0c8.78,6.02,11.79,14.49,10.79,24.81c-0.44,4.51-1.66,8.63-5.37,11.36c-2.32,1.7-2.85,3.58-2.85,6.28
		c0.08,44.97,0.08,89.94,0.01,134.91c0,3.27,0.65,6.13,2.24,9.01c38.56,69.75,77.06,139.55,115.58,209.32
		c5.49,9.95,11.19,19.79,15.59,30.3c0,5.67,0,11.33,0,17c-1.05,0.14-1.16,1.03-1.42,1.79c-6.11,17.96-18.61,29.05-36.66,34.23
		c-0.37,0.11-0.62,0.64-0.92,0.98c-105.67,0-211.33,0-317,0c-0.02-1.33-1.14-1.46-2.03-1.79c-16.28-6.05-27.89-16.77-33.47-33.52
		c-0.26-0.77-0.45-1.62-1.5-1.69C1,438,1,432,1,426z M197.5,463.27c42.33,0,84.65-0.03,126.98,0.02c11.27,0.02,21.35-3.3,30.1-10.32
		c9.15-7.34,13.12-16.92,11.58-28.69c-0.91-6.9-3.64-13.1-6.9-19.14c-37.2-68.85-74.36-137.71-111.63-206.52
		c-1.58-2.92-2.22-5.75-2.21-9c0.06-38.83,0.04-77.65,0.04-116.48c0-11.83-0.03-23.66,0.04-35.49c0.01-1.33-0.93-3.61,1.09-3.85
		c7.68-0.89,7.39-6.31,7.25-11.84c-0.16-6.19-2.18-8.26-8.54-8.29c-10.83-0.05-21.66-0.02-32.49-0.02
		c-21.16,0-42.33,0.03-63.49-0.02c-3.84-0.01-7.3,0.78-8.05,4.99c-0.58,3.22-0.38,6.66-0.03,9.95c0.26,2.48,2.11,4.38,4.62,4.63
		c3.02,0.29,3.62,1.58,3.61,4.45c-0.1,51.32-0.08,102.65-0.04,153.97c0,2.25-0.52,4.18-1.58,6.16
		c-17.34,32.07-34.61,64.19-51.94,96.27c-20.26,37.5-40.67,74.92-60.83,112.47c-11.72,21.82-4.49,42.63,18.03,53
		c5.68,2.61,11.62,3.82,17.92,3.81C113.18,463.23,155.34,463.27,197.5,463.27z"/>
	<path class="st1" d="M1,444c1.06,0.07,1.24,0.92,1.5,1.69c5.58,16.74,17.19,27.46,33.47,33.52c0.89,0.33,2.01,0.46,2.03,1.79
		c-11.5,0-23-0.07-34.5,0.06c-2.15,0.03-2.59-0.41-2.57-2.57C1.07,467,1,455.5,1,444z"/>
	<path class="st1" d="M355,481c0.3-0.34,0.55-0.87,0.92-0.98c18.05-5.18,30.55-16.27,36.66-34.23c0.26-0.76,0.36-1.66,1.42-1.79
		c0,11.5-0.07,23,0.06,34.5c0.03,2.15-0.41,2.59-2.57,2.57C379.33,480.93,367.17,481,355,481z"/>
	<path class="st1" d="M197.5,463.27c-42.16,0-84.32-0.04-126.48,0.04c-6.3,0.01-12.23-1.19-17.92-3.81
		c-22.53-10.36-29.75-31.17-18.03-53c20.16-37.55,40.57-74.98,60.83-112.47c17.33-32.08,34.6-64.2,51.94-96.27
		c1.07-1.97,1.58-3.91,1.58-6.16c-0.04-51.32-0.06-102.65,0.04-153.97c0.01-2.87-0.59-4.15-3.61-4.45
		c-2.51-0.24-4.36-2.15-4.62-4.63c-0.35-3.29-0.54-6.72,0.03-9.95c0.75-4.22,4.21-5,8.05-4.99c21.16,0.06,42.33,0.02,63.49,0.02
		c10.83,0,21.66-0.03,32.49,0.02c6.36,0.03,8.39,2.1,8.54,8.29c0.14,5.53,0.42,10.95-7.25,11.84c-2.02,0.23-1.09,2.52-1.09,3.85
		c-0.07,11.83-0.04,23.66-0.04,35.49c0,38.83,0.02,77.65-0.04,116.48c-0.01,3.25,0.63,6.09,2.21,9
		c37.26,68.81,74.43,137.68,111.63,206.52c3.27,6.04,6,12.24,6.9,19.14c1.54,11.76-2.43,21.35-11.58,28.69
		c-8.75,7.02-18.84,10.34-30.1,10.32C282.15,463.24,239.83,463.27,197.5,463.27z M200.12,450.2c15.66,0,31.33,0,46.99,0
		c22.16,0,44.33,0.11,66.49-0.05c17.9-0.13,32.91-11.82,34.85-26.95c1.11-8.66-1.99-16.4-5.92-23.86
		c-28.08-53.35-56.16-106.7-84.26-160.04c-6.52-12.37-13.35-14.61-25.68-8.11c-7.36,3.88-14.4,8.35-21.65,12.45
		c-21.97,12.42-44.9,15.02-68.79,6.34c-2.9-1.05-3.99-0.27-5.34,2.2c-26.91,49.63-53.93,99.21-80.87,148.83
		c-3.48,6.41-5.52,13.24-4.39,20.65c2.38,15.62,18.06,28.46,35.08,28.5C124.47,450.26,162.3,450.2,200.12,450.2z M215.02,109.9
		c0,21.64,0,43.28,0.01,64.93c0,1.5-0.13,3.04,0.16,4.48c0.71,3.51,2.93,5.63,6.57,5.7c3.64,0.07,5.93-1.94,6.77-5.44
		c0.3-1.27,0.24-2.64,0.24-3.97c0.01-43.78,0.01-87.57,0-131.35c0-1.32,0.01-2.69-0.31-3.96c-0.83-3.29-3.06-5.18-6.44-5.23
		c-3.63-0.05-5.95,1.97-6.79,5.45c-0.34,1.42-0.2,2.98-0.2,4.47C215.01,66.62,215.02,88.26,215.02,109.9z"/>
	<path class="st2" d="M200.12,450.2c-37.83,0-75.66,0.06-113.48-0.03c-17.03-0.04-32.7-12.88-35.08-28.5
		c-1.13-7.41,0.91-14.25,4.39-20.65c26.94-49.62,53.96-99.19,80.87-148.83c1.34-2.48,2.44-3.26,5.34-2.2
		c23.89,8.68,46.82,6.08,68.79-6.34c7.25-4.1,14.29-8.57,21.65-12.45c12.34-6.5,19.16-4.26,25.68,8.11
		c28.11,53.34,56.19,106.69,84.26,160.04c3.93,7.46,7.03,15.2,5.92,23.86c-1.94,15.13-16.96,26.82-34.85,26.95
		c-22.16,0.16-44.33,0.05-66.49,0.05C231.45,450.2,215.79,450.2,200.12,450.2z M236,379.27c0-11.16,0-22.32,0-33.48
		c0-14.02-3.43-17.49-17.28-17.49c-10.33,0-20.65-0.12-30.98,0.07c-3.37,0.06-4.21-1.03-4.01-4.29c0.56-8.96,1-17.95,1.05-26.92
		c0.02-3.61,1.2-4.38,4.57-4.34c13.99,0.18,27.98,0.01,41.97,0.13c2.74,0.02,3.87-0.62,3.73-3.57c-0.23-4.65-0.18-9.33-0.01-13.99
		c0.09-2.51-0.53-3.47-3.27-3.46c-21.98,0.11-43.97,0.09-65.95,0.01c-2.41-0.01-3.06,0.73-3.13,3.11
		c-0.72,23.11-1.49,46.21-2.47,69.31c-0.16,3.86,1.05,4.67,4.71,4.61c14.65-0.22,29.31-0.05,43.97-0.13
		c2.54-0.01,3.93,0.31,3.91,3.44c-0.14,17.82-0.11,35.64-0.02,53.46c0.01,2.65-0.89,3.44-3.46,3.39
		c-7.16-0.13-14.33-0.24-21.48,0.04c-3.5,0.14-4.09-1.24-4.02-4.3c0.18-7.49-0.05-14.99,0.12-22.48c0.06-2.82-0.79-3.81-3.66-3.72
		c-5.66,0.19-11.32,0.13-16.99,0.02c-2.28-0.04-3.27,0.6-3.24,3.09c0.13,11.49-0.16,22.99,0.22,34.47c0.31,9.16,4.9,13.35,13.9,13.4
		c15.99,0.09,31.98,0.11,47.97-0.01c9.25-0.07,13.79-4.73,13.84-13.92C236.05,403.59,236,391.43,236,379.27z"/>
	<path class="st3" d="M215.02,109.9c0-21.64,0-43.28,0.01-64.93c0-1.5-0.14-3.05,0.2-4.47c0.84-3.47,3.16-5.5,6.79-5.45
		c3.38,0.05,5.61,1.94,6.44,5.23c0.32,1.27,0.31,2.64,0.31,3.96c0.01,43.78,0.01,87.57,0,131.35c0,1.33,0.06,2.7-0.24,3.97
		c-0.84,3.5-3.14,5.51-6.77,5.44c-3.64-0.07-5.85-2.19-6.57-5.7c-0.29-1.44-0.16-2.98-0.16-4.48
		C215.02,153.19,215.02,131.55,215.02,109.9z"/>
	<path class="st4" d="M236,379.27c0,12.16,0.04,24.32-0.01,36.47c-0.04,9.19-4.59,13.85-13.84,13.92
		c-15.99,0.11-31.98,0.09-47.97,0.01c-9-0.05-13.6-4.24-13.9-13.4c-0.38-11.48-0.09-22.98-0.22-34.47
		c-0.03-2.49,0.96-3.13,3.24-3.09c5.66,0.1,11.33,0.16,16.99-0.02c2.87-0.1,3.72,0.9,3.66,3.72c-0.17,7.49,0.07,14.99-0.12,22.48
		c-0.08,3.07,0.52,4.44,4.02,4.3c7.15-0.28,14.32-0.17,21.48-0.04c2.56,0.05,3.47-0.74,3.46-3.39c-0.1-17.82-0.12-35.64,0.02-53.46
		c0.02-3.13-1.37-3.46-3.91-3.44c-14.66,0.08-29.31-0.09-43.97,0.13c-3.66,0.05-4.87-0.75-4.71-4.61c0.98-23.1,1.75-46.2,2.47-69.31
		c0.07-2.38,0.72-3.12,3.13-3.11c21.98,0.08,43.97,0.1,65.95-0.01c2.74-0.01,3.37,0.95,3.27,3.46c-0.17,4.66-0.22,9.33,0.01,13.99
		c0.15,2.95-0.99,3.59-3.73,3.57c-13.99-0.12-27.98,0.05-41.97-0.13c-3.38-0.04-4.55,0.72-4.57,4.34
		c-0.05,8.98-0.48,17.96-1.05,26.92c-0.21,3.26,0.64,4.35,4.01,4.29c10.32-0.19,20.65-0.07,30.98-0.07
		c13.85,0,17.28,3.47,17.28,17.49C236,356.95,236,368.11,236,379.27z"/>
</g>
</svg>
