<?xml version="1.0" encoding="utf-8"?>
<!-- Generator: Adobe Illustrator 23.0.6, SVG Export Plug-In . SVG Version: 6.00 Build 0)  -->
<svg version="1.1" id="Layer_1" xmlns="http://www.w3.org/2000/svg" xmlns:xlink="http://www.w3.org/1999/xlink" x="0px" y="0px"
	 viewBox="0 0 595.28 841.89" style="enable-background:new 0 0 595.28 841.89;" xml:space="preserve">
<style type="text/css">
	.st0{fill:#010101;}
	.st1{fill:#FEFEFE;}
	.st2{fill:#30409A;}
</style>
<g>
	<path class="st0" d="M292.76,709.43c-59.6,0-119.2-0.05-178.8,0.06c-8.05,0.01-15.5-1.8-22.59-5.4
		c-10.25-5.21-18.81-12.43-25.19-22.01c-10.87-16.32-12.02-33.37-3.01-50.83c4.72-9.16,9.9-18.08,14.89-27.1
		c43.49-78.66,86.98-157.31,130.45-235.97c2.7-4.89,5.21-9.9,7.84-14.83c0.51-0.96,0.76-1.91,0.69-2.98
		c-0.03-0.48-0.01-0.96-0.01-1.44c0-53.28,0-106.56,0-159.84c0-2.8,0.01-5.6,0.12-8.4c0.04-0.93-0.23-1.41-1.02-1.9
		c-6.06-3.82-8.99-9.34-8.79-16.5c0.11-3.83-0.38-7.68,0.44-11.48c1.15-5.32,3.68-9.86,7.79-13.44c3-2.61,6.47-3.95,10.51-3.95
		c44.48,0.03,88.96,0.03,133.44,0c4.42,0,8.14,1.55,11.23,4.57c4.78,4.67,7.41,10.35,7.49,17.09c0.04,2.8,0.04,5.6,0,8.4
		c-0.1,6.4-2.87,11.39-8.16,14.9c-1.22,0.81-1.76,1.57-1.58,3.04c0.17,1.42,0.06,2.88,0.06,4.32c0,54.56,0.01,109.12-0.02,163.68
		c0,1.74,0.37,3.26,1.16,4.79c11.42,21.89,23.66,43.33,35.59,64.94c38.38,69.52,76.83,139,115.28,208.49
		c3.07,5.55,5.67,11.26,6.96,17.51c2.18,10.56,1.06,20.77-3.89,30.32c-9,17.35-23.13,28.4-42.1,33.2c-2.73,0.69-5.53,0.78-8.34,0.78
		C413.07,709.43,352.92,709.43,292.76,709.43z M293.23,688.19c50.96,0,101.92,0.04,152.88-0.02c13.43-0.02,25.47-4.33,35.79-12.91
		c11.71-9.75,15.68-22.33,12.69-37.19c-1.39-6.89-4.24-13.2-7.56-19.34c-38.21-70.61-76.42-141.23-114.6-211.85
		c-6.88-12.72-13.62-25.51-20.52-38.21c-1.07-1.97-1.57-3.87-1.56-6.1c0.04-62.32,0.04-124.64,0.04-186.96
		c0-0.64,0.03-1.28-0.01-1.92c-0.05-0.87,0.2-1.4,1.19-1.3c0.32,0.03,0.64-0.01,0.96,0c3.96,0.19,7.87-3.02,7.88-7.9
		c0.01-2.16-0.14-4.33,0.03-6.48c0.43-5.21-2.8-9.9-9.37-9.32c-0.16,0.01-0.32,0-0.48,0c-38.56,0-77.12,0-115.68,0
		c-0.64,0-1.28-0.01-1.92,0.01c-4.63,0.12-7.75,3.24-7.84,7.92c-0.05,2.48,0.08,4.96-0.03,7.44c-0.21,4.78,3.57,8.62,8.18,8.34
		c2.08-0.12,2.04-0.08,2.03,2.13c0,0.48,0,0.96,0,1.44c0,53.84,0,107.68,0,161.52c0,8.88,0,17.76,0,26.64
		c0,1.03,0.01,2.01-0.53,3.01c-5.92,10.97-11.75,21.98-17.67,32.94c-39.48,73.01-78.98,146.01-118.48,219.02
		c-1.87,3.45-3.55,6.97-4.79,10.7c-3.7,11.13-3.46,22.01,2.19,32.5c7.94,14.76,26.57,25.89,43.36,25.89
		C190.67,688.2,241.95,688.19,293.23,688.19z"/>
	<path class="st1" d="M293.23,688.19c-51.28,0-102.56,0.01-153.84,0c-16.79,0-35.42-11.13-43.36-25.89
		c-5.64-10.49-5.89-21.37-2.19-32.5c1.24-3.73,2.93-7.25,4.79-10.7c39.5-73,79-146,118.48-219.02
		c5.93-10.96,11.76-21.98,17.67-32.94c0.54-0.99,0.53-1.98,0.53-3.01c0-8.88,0-17.76,0-26.64c0-53.84,0-107.68,0-161.52
		c0-0.48,0-0.96,0-1.44c0.02-2.21,0.05-2.26-2.03-2.13c-4.6,0.27-8.38-3.57-8.18-8.34c0.11-2.48-0.02-4.96,0.03-7.44
		c0.09-4.67,3.21-7.8,7.84-7.92c0.64-0.02,1.28-0.01,1.92-0.01c38.56,0,77.12,0,115.68,0c0.16,0,0.32,0.01,0.48,0
		c6.57-0.58,9.8,4.11,9.37,9.32c-0.18,2.15-0.03,4.32-0.03,6.48c-0.01,4.87-3.92,8.08-7.88,7.9c-0.32-0.02-0.64,0.03-0.96,0
		c-0.99-0.1-1.25,0.43-1.19,1.3c0.04,0.64,0.01,1.28,0.01,1.92c0,62.32,0.01,124.64-0.04,186.96c0,2.24,0.49,4.13,1.56,6.1
		c6.9,12.7,13.64,25.5,20.52,38.21c38.19,70.62,76.39,141.24,114.6,211.85c3.32,6.14,6.17,12.45,7.56,19.34
		c2.99,14.86-0.98,27.45-12.69,37.19c-10.32,8.58-22.36,12.89-35.79,12.91C395.15,688.22,344.19,688.19,293.23,688.19z
		 M295.72,672.79c44.8,0,89.6,0,134.4,0c3.21,0,6.4-0.19,9.54-0.82c9.7-1.93,18.39-5.9,25.42-13.01c7.82-7.91,10.49-17.5,8.89-28.39
		c-0.97-6.65-3.49-12.76-6.59-18.66c-33.88-64.4-67.76-128.81-101.65-193.21c-1.91-3.63-4.14-7.03-7.29-9.74
		c-3.53-3.04-7.59-4.26-12.23-3.56c-3.52,0.52-6.77,1.8-9.95,3.34c-4.9,2.37-9.52,5.23-14.16,8.04
		c-7.79,4.71-15.64,9.31-23.99,13.01c-18.95,8.41-38.51,10.64-58.78,6.01c-5.3-1.21-10.51-2.74-15.55-4.76
		c-1.13-0.45-1.78-0.3-2.19,0.84c-0.08,0.22-0.22,0.42-0.34,0.63c-32.56,59.86-65.12,119.73-97.68,179.59
		c-1.49,2.74-2.85,5.54-3.86,8.5c-4.13,12.08-3.25,23.62,4.76,33.83c9.24,11.76,21.44,18.29,36.61,18.31
		C205.96,672.84,250.84,672.79,295.72,672.79z M330.4,264.26c0-26.56,0-53.11,0-79.67c0-0.88,0.02-1.76-0.04-2.64
		c-0.26-4.17-3.42-7.43-7.45-7.74c-4.22-0.32-7.99,2.41-8.82,6.49c-0.22,1.08-0.17,2.23-0.17,3.34
		c-0.01,53.51-0.01,107.02-0.01,160.53c0,0.56-0.01,1.12,0.01,1.68c0.15,4.59,3.59,8.03,8.1,8.1c4.56,0.07,8.09-3.22,8.36-7.8
		c0.05-0.88,0.03-1.76,0.03-2.64C330.4,317.37,330.4,290.81,330.4,264.26z"/>
	<path class="st2" d="M295.72,672.79c-44.88,0-89.76,0.05-134.64-0.03c-15.17-0.03-27.37-6.55-36.61-18.31
		c-8.01-10.21-8.89-21.75-4.76-33.83c1.01-2.95,2.37-5.76,3.86-8.5c32.56-59.86,65.12-119.73,97.68-179.59
		c0.11-0.21,0.26-0.41,0.34-0.63c0.4-1.15,1.05-1.29,2.19-0.84c5.05,2.01,10.25,3.55,15.55,4.76c20.27,4.63,39.84,2.4,58.78-6.01
		c8.34-3.7,16.19-8.3,23.99-13.01c4.65-2.81,9.26-5.68,14.16-8.04c3.17-1.53,6.42-2.81,9.95-3.34c4.65-0.69,8.7,0.52,12.23,3.56
		c3.14,2.71,5.38,6.11,7.29,9.74c33.89,64.4,67.77,128.8,101.65,193.21c3.1,5.9,5.62,12.01,6.59,18.66
		c1.59,10.89-1.07,20.48-8.89,28.39c-7.03,7.11-15.72,11.08-25.42,13.01c-3.15,0.63-6.34,0.82-9.54,0.82
		C385.32,672.79,340.52,672.79,295.72,672.79z"/>
	<path class="st0" d="M330.4,264.26c0,26.56,0,53.11,0,79.67c0,0.88,0.02,1.76-0.03,2.64c-0.27,4.58-3.8,7.87-8.36,7.8
		c-4.5-0.07-7.95-3.51-8.1-8.1c-0.02-0.56-0.01-1.12-0.01-1.68c0-53.51,0-107.02,0.01-160.53c0-1.12-0.05-2.26,0.17-3.34
		c0.84-4.09,4.61-6.81,8.82-6.49c4.03,0.31,7.19,3.57,7.45,7.74c0.06,0.88,0.04,1.76,0.04,2.64
		C330.4,211.15,330.4,237.7,330.4,264.26z"/>
</g>
</svg>
